<svg xmlns="http://www.w3.org/2000/svg" xmlns:v="https://svgstorm.com"
viewBox = "0 0 412 400"
width="412"
height="400">
<g fill="None" fill-opacity="0.0" stroke="#000000" stroke-opacity="0.00" stroke-width="0.3"><path d="
M 0.00 70.00 
C 0.50 70.00 1.00 70.00 1.00 70.00
C 2.28 36.43 37.49 1.67 71.00 1.00
C 70.99 1.00 71.00 0.00 71.00 0.00
L 0.00 0.00
L 0.00 70.00 Z"/>
</g>
<g fill="None" fill-opacity="0.0" stroke="#FFFFFF" stroke-opacity="0.57" stroke-width="0.3"><path d="
M 71.00 1.00 
C 74.18 0.94 78.64 1.85 81.00 0.00
L 71.00 0.00
C 71.00 0.00 70.99 1.00 71.00 1.00 Z"/>
</g>
<g fill="None" fill-opacity="0.0" stroke="#FEFEFE" stroke-opacity="1.00" stroke-width="0.3"><path d="
M 71.00 1.00 
C 37.49 1.67 2.28 36.43 1.00 70.00
C 0.89 72.86 1.87 76.96 0.00 79.00
L 0.00 330.00
C 5.24 363.11 34.59 396.89 70.00 399.00
C 72.22 399.13 75.60 398.15 77.00 400.00
L 342.00 400.00
C 376.52 394.91 407.11 364.59 412.00 330.00
L 412.00 329.00
C 410.50 327.36 410.28 322.57 412.00 321.00
L 412.00 80.00
C 410.17 77.56 411.12 73.20 411.00 70.00
C 409.64 34.29 373.88 4.42 341.00 0.00
L 340.00 0.00
C 338.04 1.52 332.89 1.72 331.00 0.00
L 81.00 0.00
C 78.64 1.85 74.18 0.94 71.00 1.00
M 47.00 250.00 
C 50.24 251.15 53.48 250.79 57.00 251.00
C 58.99 251.12 61.01 250.91 63.00 251.00
C 63.00 257.00 63.00 263.00 63.00 269.00
C 55.69 270.19 44.25 271.08 37.33 268.67 C 30.40 266.26 24.13 263.26 20.70 256.30 C 17.26 249.34 17.91 239.31 22.75 232.75 C 27.60 226.20 29.43 222.03 31.00 213.00 C 32.57 203.96 15.85 206.23 14.08 200.92 C 12.32 195.60 31.19 196.67 30.97 188.97 C 30.76 181.28 26.68 175.86 22.23 169.77 C 17.78 163.68 17.48 152.63 20.92 145.92 C 24.37 139.22 29.91 135.39 37.02 133.02 C 44.14 130.66 55.28 130.04 63.00 132.00
C 64.54 142.30 63.86 151.93 53.00 149.00 C 42.14 146.08 39.07 158.07 43.77 164.23 C 48.48 170.39 51.62 174.98 54.32 182.68 C 57.02 190.37 51.91 199.32 43.00 200.00
C 47.32 203.05 57.09 207.30 55.00 215.00 C 52.91 222.70 51.69 227.89 46.08 233.08 C 40.48 238.28 38.84 247.21 47.00 250.00
M 352.00 264.00 
C 351.73 261.33 352.67 258.93 353.00 257.00
C 353.33 255.06 352.75 252.96 353.00 251.00
C 354.00 251.00 355.00 251.00 356.00 251.00
C 358.98 250.03 362.90 251.55 366.00 251.00
C 380.02 246.57 371.41 234.21 364.25 226.75 C 357.08 219.30 359.24 200.76 373.00 202.00
C 365.46 198.32 357.51 192.16 360.98 181.98 C 364.44 171.79 369.84 170.38 373.32 160.32 C 376.81 150.26 360.59 146.34 353.00 150.00
C 353.00 148.00 353.00 146.00 353.00 144.00
C 352.67 142.04 351.73 139.64 352.00 137.00
C 352.04 135.33 351.97 133.67 352.00 132.00
C 359.88 130.62 370.78 130.40 378.07 132.93 C 385.37 135.46 390.23 139.17 394.30 145.70 C 398.38 152.22 398.06 162.11 393.69 168.69 C 389.33 175.28 385.42 179.55 384.02 188.02 C 382.63 196.50 401.11 194.70 400.97 200.03 C 400.84 205.36 383.59 203.81 384.08 212.08 C 384.57 220.34 388.25 225.71 392.75 232.25 C 397.26 238.78 398.45 247.79 395.07 255.07 C 391.70 262.36 386.69 265.50 378.98 267.98 C 371.26 270.45 360.32 270.34 352.00 269.00
C 352.00 267.33 352.00 265.67 352.00 264.00
M 136.00 227.00 
C 132.54 227.42 128.12 228.00 124.00 228.00
C 124.42 232.60 124.48 239.56 124.00 244.00 C 123.52 248.44 125.99 257.01 123.00 260.00
C 120.04 262.96 107.88 261.58 103.00 261.00 C 98.12 260.42 100.23 248.37 100.00 243.00 C 99.77 237.63 100.06 228.35 100.00 222.00 C 99.94 215.65 99.94 206.69 100.00 200.00 C 100.06 193.31 99.75 185.72 100.00 179.00 C 100.25 172.28 99.40 164.57 100.00 158.00 C 100.60 151.43 97.01 141.95 104.00 140.00
C 129.80 132.80 165.35 141.09 173.93 168.07 C 182.50 195.06 165.65 226.41 136.00 227.00
M 332.00 259.00 
C 331.76 261.81 325.31 261.57 321.00 261.00 C 316.69 260.43 309.14 262.79 306.00 260.00
C 300.50 255.11 303.57 239.86 298.00 235.00
C 284.33 235.00 270.67 235.00 257.00 235.00
C 254.25 237.44 254.90 244.61 253.02 248.02 C 251.15 251.44 250.62 257.29 249.00 261.00
C 246.33 261.00 243.67 261.00 241.00 261.00
C 237.79 261.00 225.62 262.65 224.00 260.00
C 222.55 257.63 228.53 248.69 228.98 244.98 C 229.42 241.26 233.29 234.73 234.32 230.32 C 235.36 225.91 238.31 220.45 239.78 215.78 C 241.24 211.10 243.27 205.71 244.93 200.93 C 246.58 196.14 248.69 191.21 250.31 186.31 C 251.92 181.40 253.93 176.66 255.77 171.77 C 257.61 166.88 258.80 161.78 260.92 156.92 C 263.05 152.07 264.65 146.41 265.00 141.00
C 273.33 141.00 281.67 141.00 290.00 141.00
C 303.08 180.65 318.94 219.38 332.00 259.00
M 214.00 182.00 
C 214.00 190.00 214.00 198.00 214.00 206.00
C 205.67 206.00 197.33 206.00 189.00 206.00
C 189.00 198.00 189.00 190.00 189.00 182.00
C 197.33 182.00 205.67 182.00 214.00 182.00
M 214.00 258.00 
C 213.99 258.11 215.91 260.18 215.00 261.00
C 206.50 260.34 196.67 262.33 189.00 260.00
C 185.40 254.85 191.70 242.78 189.00 237.00
C 197.33 237.00 205.67 237.00 214.00 237.00
C 214.00 244.00 214.00 251.00 214.00 258.00 Z"/>
</g>
<g fill="None" fill-opacity="0.0" stroke="#FFFFFF" stroke-opacity="0.62" stroke-width="0.3"><path d="
M 340.00 0.00 
L 331.00 0.00
C 332.89 1.72 338.04 1.52 340.00 0.00 Z"/>
</g>
<g fill="None" fill-opacity="0.0" stroke="#000000" stroke-opacity="0.00" stroke-width="0.3"><path d="
M 411.00 70.00 
C 411.00 69.98 412.00 70.00 412.00 70.00
L 412.00 0.00
L 341.00 0.00
C 373.88 4.42 409.64 34.29 411.00 70.00 Z"/>
</g>
<g fill="None" fill-opacity="0.0" stroke="#FFFFFF" stroke-opacity="0.51" stroke-width="0.3"><path d="
M 0.00 79.00 
C 1.87 76.96 0.89 72.86 1.00 70.00
C 1.00 70.00 0.50 70.00 0.00 70.00
L 0.00 79.00 Z"/>
</g>
<g fill="None" fill-opacity="0.0" stroke="#FFFFFF" stroke-opacity="0.54" stroke-width="0.3"><path d="
M 412.00 80.00 
L 412.00 70.00
C 412.00 70.00 411.00 69.98 411.00 70.00
C 411.12 73.20 410.17 77.56 412.00 80.00 Z"/>
</g>
<g fill="None" fill-opacity="0.0" stroke="#000000" stroke-opacity="1.00" stroke-width="0.3"><path d="
M 57.00 251.00 
C 52.93 251.15 51.02 252.10 47.00 250.00
C 38.84 247.21 40.48 238.28 46.08 233.08 C 51.69 227.89 52.91 222.70 55.00 215.00 C 57.09 207.30 47.32 203.05 43.00 200.00
C 51.91 199.32 57.02 190.37 54.32 182.68 C 51.62 174.98 48.48 170.39 43.77 164.23 C 39.07 158.07 42.14 146.08 53.00 149.00 C 63.86 151.93 64.54 142.30 63.00 132.00
C 55.28 130.04 44.14 130.66 37.02 133.02 C 29.91 135.39 24.37 139.22 20.92 145.92 C 17.48 152.63 17.78 163.68 22.23 169.77 C 26.68 175.86 30.76 181.28 30.97 188.97 C 31.19 196.67 12.32 195.60 14.08 200.92 C 15.85 206.23 32.57 203.96 31.00 213.00 C 29.43 222.03 27.60 226.20 22.75 232.75 C 17.91 239.31 17.26 249.34 20.70 256.30 C 24.13 263.26 30.40 266.26 37.33 268.67 C 44.25 271.08 55.69 270.19 63.00 269.00
C 63.00 263.00 63.00 257.00 63.00 251.00
C 61.01 250.91 58.99 251.12 57.00 251.00 Z"/>
</g>
<g fill="None" fill-opacity="0.0" stroke="#000000" stroke-opacity="1.00" stroke-width="0.3"><path d="
M 352.00 137.00 
C 351.97 138.19 352.84 142.10 353.00 144.00
C 353.00 146.00 353.00 148.00 353.00 150.00
C 360.59 146.34 376.81 150.26 373.32 160.32 C 369.84 170.38 364.44 171.79 360.98 181.98 C 357.51 192.16 365.46 198.32 373.00 202.00
C 359.24 200.76 357.08 219.30 364.25 226.75 C 371.41 234.21 380.02 246.57 366.00 251.00
C 363.16 251.90 358.00 250.53 356.00 251.00
C 355.00 251.00 354.00 251.00 353.00 251.00
C 352.75 252.96 353.33 255.06 353.00 257.00
C 352.84 258.89 351.97 262.89 352.00 264.00
C 352.00 265.67 352.00 267.33 352.00 269.00
C 360.32 270.34 371.26 270.45 378.98 267.98 C 386.69 265.50 391.70 262.36 395.07 255.07 C 398.45 247.79 397.26 238.78 392.75 232.25 C 388.25 225.71 384.57 220.34 384.08 212.08 C 383.59 203.81 400.84 205.36 400.97 200.03 C 401.11 194.70 382.63 196.50 384.02 188.02 C 385.42 179.55 389.33 175.28 393.69 168.69 C 398.06 162.11 398.38 152.22 394.30 145.70 C 390.23 139.17 385.37 135.46 378.07 132.93 C 370.78 130.40 359.88 130.62 352.00 132.00
C 351.97 133.67 352.04 135.33 352.00 137.00 Z"/>
</g>
<g fill="None" fill-opacity="0.0" stroke="#757575" stroke-opacity="1.00" stroke-width="0.3"><path d="
M 353.00 144.00 
C 352.84 142.10 351.97 138.19 352.00 137.00
C 351.73 139.64 352.67 142.04 353.00 144.00 Z"/>
</g>
<g fill="None" fill-opacity="0.0" stroke="#000000" stroke-opacity="1.00" stroke-width="0.3"><path d="
M 104.00 140.00 
C 103.28 140.30 102.32 141.66 101.00 141.00
C 101.00 180.67 101.00 220.33 101.00 260.00
C 108.33 260.00 115.67 260.00 123.00 260.00
C 123.72 249.40 122.04 238.58 123.00 228.00
C 125.25 225.66 132.70 227.07 136.00 227.00
C 165.65 226.41 182.50 195.06 173.93 168.07 C 165.35 141.09 129.80 132.80 104.00 140.00
M 134.00 161.00 
C 147.09 161.89 153.20 172.39 153.00 185.00 C 152.80 197.61 144.95 205.53 133.00 208.00
C 130.38 208.54 127.67 209.89 125.00 208.00
C 121.19 205.30 122.49 190.51 123.00 185.00 C 123.51 179.49 120.26 164.74 124.00 161.00
C 126.47 158.53 131.54 160.56 134.00 161.00 Z"/>
</g>
<g fill="None" fill-opacity="0.0" stroke="#6E6E6E" stroke-opacity="1.00" stroke-width="0.3"><path d="
M 123.00 260.00 
C 115.67 260.00 108.33 260.00 101.00 260.00
C 101.00 220.33 101.00 180.67 101.00 141.00
C 102.32 141.66 103.28 140.30 104.00 140.00
C 97.01 141.95 100.60 151.43 100.00 158.00 C 99.40 164.57 100.25 172.28 100.00 179.00 C 99.75 185.72 100.06 193.31 100.00 200.00 C 99.94 206.69 99.94 215.65 100.00 222.00 C 100.06 228.35 99.77 237.63 100.00 243.00 C 100.23 248.37 98.12 260.42 103.00 261.00 C 107.88 261.58 120.04 262.96 123.00 260.00 Z"/>
</g>
<g fill="None" fill-opacity="0.0" stroke="#000000" stroke-opacity="1.00" stroke-width="0.3"><path d="
M 224.00 260.00 
C 229.63 259.27 236.15 260.53 241.00 261.00
C 243.67 261.00 246.33 261.00 249.00 261.00
C 250.62 257.29 251.15 251.44 253.02 248.02 C 254.90 244.61 254.25 237.44 257.00 235.00
C 260.39 231.99 272.14 233.90 277.00 234.00 C 281.86 234.10 294.48 231.93 298.00 235.00
C 303.57 239.86 300.50 255.11 306.00 260.00
C 309.65 259.35 315.58 260.87 319.00 260.00 C 322.42 259.13 330.09 262.02 332.00 259.00
C 318.94 219.38 303.08 180.65 290.00 141.00
C 281.67 141.00 273.33 141.00 265.00 141.00
C 264.65 146.41 263.05 152.07 260.92 156.92 C 258.80 161.78 257.61 166.88 255.77 171.77 C 253.93 176.66 251.92 181.40 250.31 186.31 C 248.69 191.21 246.58 196.14 244.93 200.93 C 243.27 205.71 241.24 211.10 239.78 215.78 C 238.31 220.45 235.36 225.91 234.32 230.32 C 233.29 234.73 229.42 241.26 228.98 244.98 C 228.53 248.69 222.55 257.63 224.00 260.00
M 290.00 213.00 
C 281.33 213.00 272.67 213.00 264.00 213.00
C 268.30 199.34 272.85 185.74 277.00 172.00
C 282.20 185.01 286.93 199.04 290.00 213.00 Z"/>
</g>
<g fill="None" fill-opacity="0.0" stroke="#6B6B6B" stroke-opacity="1.00" stroke-width="0.3"><path d="
M 124.00 161.00 
C 125.45 159.98 132.14 160.87 134.00 161.00
C 131.54 160.56 126.47 158.53 124.00 161.00 Z"/>
</g>
<g fill="None" fill-opacity="0.0" stroke="#F6F6F6" stroke-opacity="1.00" stroke-width="0.3"><path d="
M 125.00 208.00 
C 126.57 208.76 131.22 208.16 133.00 208.00
C 144.95 205.53 152.80 197.61 153.00 185.00 C 153.20 172.39 147.09 161.89 134.00 161.00
C 132.14 160.87 125.45 159.98 124.00 161.00
C 120.26 164.74 123.51 179.49 123.00 185.00 C 122.49 190.51 121.19 205.30 125.00 208.00 Z"/>
</g>
<g fill="None" fill-opacity="0.0" stroke="#F4F4F4" stroke-opacity="1.00" stroke-width="0.3"><path d="
M 290.00 213.00 
C 286.93 199.04 282.20 185.01 277.00 172.00
C 272.85 185.74 268.30 199.34 264.00 213.00
C 272.67 213.00 281.33 213.00 290.00 213.00 Z"/>
</g>
<g fill="None" fill-opacity="0.0" stroke="#000000" stroke-opacity="1.00" stroke-width="0.3"><path d="
M 214.00 182.00 
C 205.67 182.00 197.33 182.00 189.00 182.00
C 189.00 190.00 189.00 198.00 189.00 206.00
C 197.33 206.00 205.67 206.00 214.00 206.00
C 214.00 198.00 214.00 190.00 214.00 182.00 Z"/>
</g>
<g fill="None" fill-opacity="0.0" stroke="#5F5F5F" stroke-opacity="1.00" stroke-width="0.3"><path d="
M 133.00 208.00 
C 131.22 208.16 126.57 208.76 125.00 208.00
C 127.67 209.89 130.38 208.54 133.00 208.00 Z"/>
</g>
<g fill="None" fill-opacity="0.0" stroke="#525252" stroke-opacity="1.00" stroke-width="0.3"><path d="
M 123.00 228.00 
C 123.00 227.96 124.00 228.00 124.00 228.00
C 128.12 228.00 132.54 227.42 136.00 227.00
C 132.70 227.07 125.25 225.66 123.00 228.00 Z"/>
</g>
<g fill="None" fill-opacity="0.0" stroke="#A9A9A9" stroke-opacity="1.00" stroke-width="0.3"><path d="
M 123.00 260.00 
C 125.99 257.01 123.52 248.44 124.00 244.00 C 124.48 239.56 124.42 232.60 124.00 228.00
C 124.00 228.00 123.00 227.96 123.00 228.00
C 122.04 238.58 123.72 249.40 123.00 260.00 Z"/>
</g>
<g fill="None" fill-opacity="0.0" stroke="#616161" stroke-opacity="1.00" stroke-width="0.3"><path d="
M 257.00 235.00 
C 270.67 235.00 284.33 235.00 298.00 235.00
C 294.48 231.93 281.86 234.10 277.00 234.00 C 272.14 233.90 260.39 231.99 257.00 235.00 Z"/>
</g>
<g fill="None" fill-opacity="0.0" stroke="#000000" stroke-opacity="1.00" stroke-width="0.3"><path d="
M 189.00 260.00 
C 194.90 257.78 211.17 263.85 214.00 258.00
C 214.00 251.00 214.00 244.00 214.00 237.00
C 205.67 237.00 197.33 237.00 189.00 237.00
C 191.70 242.78 185.40 254.85 189.00 260.00 Z"/>
</g>
<g fill="None" fill-opacity="0.0" stroke="#8E8E8E" stroke-opacity="1.00" stroke-width="0.3"><path d="
M 57.00 251.00 
C 53.48 250.79 50.24 251.15 47.00 250.00
C 51.02 252.10 52.93 251.15 57.00 251.00 Z"/>
</g>
<g fill="None" fill-opacity="0.0" stroke="#818181" stroke-opacity="1.00" stroke-width="0.3"><path d="
M 366.00 251.00 
C 362.90 251.55 358.98 250.03 356.00 251.00
C 358.00 250.53 363.16 251.90 366.00 251.00 Z"/>
</g>
<g fill="None" fill-opacity="0.0" stroke="#737373" stroke-opacity="1.00" stroke-width="0.3"><path d="
M 352.00 264.00 
C 351.97 262.89 352.84 258.89 353.00 257.00
C 352.67 258.93 351.73 261.33 352.00 264.00 Z"/>
</g>
<g fill="None" fill-opacity="0.0" stroke="#747474" stroke-opacity="1.00" stroke-width="0.3"><path d="
M 189.00 260.00 
C 196.67 262.33 206.50 260.34 215.00 261.00
C 215.91 260.18 213.99 258.11 214.00 258.00
C 211.17 263.85 194.90 257.78 189.00 260.00 Z"/>
</g>
<g fill="None" fill-opacity="0.0" stroke="#6E6E6E" stroke-opacity="1.00" stroke-width="0.3"><path d="
M 306.00 260.00 
C 309.14 262.79 316.69 260.43 321.00 261.00 C 325.31 261.57 331.76 261.81 332.00 259.00
C 330.09 262.02 322.42 259.13 319.00 260.00 C 315.58 260.87 309.65 259.35 306.00 260.00 Z"/>
</g>
<g fill="None" fill-opacity="0.0" stroke="#6C6C6C" stroke-opacity="1.00" stroke-width="0.3"><path d="
M 241.00 261.00 
C 236.15 260.53 229.63 259.27 224.00 260.00
C 225.62 262.65 237.79 261.00 241.00 261.00 Z"/>
</g>
<g fill="None" fill-opacity="0.0" stroke="#FFFFFF" stroke-opacity="0.57" stroke-width="0.3"><path d="
M 412.00 329.00 
L 412.00 321.00
C 410.28 322.57 410.50 327.36 412.00 329.00 Z"/>
</g>
<g fill="None" fill-opacity="0.0" stroke="#000000" stroke-opacity="0.00" stroke-width="0.3"><path d="
M 0.00 400.00 
L 70.00 400.00
C 70.00 399.50 70.00 399.00 70.00 399.00
C 34.59 396.89 5.24 363.11 0.00 330.00
L 0.00 400.00 Z"/>
</g>
<g fill="None" fill-opacity="0.0" stroke="#000000" stroke-opacity="0.00" stroke-width="0.3"><path d="
M 342.00 400.00 
L 412.00 400.00
L 412.00 330.00
C 407.11 364.59 376.52 394.91 342.00 400.00 Z"/>
</g>
<g fill="None" fill-opacity="0.0" stroke="#FFFFFF" stroke-opacity="0.56" stroke-width="0.3"><path d="
M 70.00 400.00 
L 77.00 400.00
C 75.60 398.15 72.22 399.13 70.00 399.00
C 70.00 399.00 70.00 399.50 70.00 400.00 Z"/>
</g>
<g fill="#000000" fill-opacity="0.00" stroke="None">
<path d="
M 0.00 70.00 
C 0.50 70.00 1.00 70.00 1.00 70.00
C 2.28 36.43 37.49 1.67 71.00 1.00
C 70.99 1.00 71.00 0.00 71.00 0.00
L 0.00 0.00
L 0.00 70.00 Z"/>
</g>
<g fill="#FFFFFF" fill-opacity="0.57" stroke="None">
<path d="
M 71.00 1.00 
C 74.18 0.94 78.64 1.85 81.00 0.00
L 71.00 0.00
C 71.00 0.00 70.99 1.00 71.00 1.00 Z"/>
</g>
<g fill="#FEFEFE" fill-opacity="1.00" stroke="None">
<path d="
M 71.00 1.00 
C 37.49 1.67 2.28 36.43 1.00 70.00
C 0.89 72.86 1.87 76.96 0.00 79.00
L 0.00 330.00
C 5.24 363.11 34.59 396.89 70.00 399.00
C 72.22 399.13 75.60 398.15 77.00 400.00
L 342.00 400.00
C 376.52 394.91 407.11 364.59 412.00 330.00
L 412.00 329.00
C 410.50 327.36 410.28 322.57 412.00 321.00
L 412.00 80.00
C 410.17 77.56 411.12 73.20 411.00 70.00
C 409.64 34.29 373.88 4.42 341.00 0.00
L 340.00 0.00
C 338.04 1.52 332.89 1.72 331.00 0.00
L 81.00 0.00
C 78.64 1.85 74.18 0.94 71.00 1.00
M 47.00 250.00 
C 50.24 251.15 53.48 250.79 57.00 251.00
C 58.99 251.12 61.01 250.91 63.00 251.00
C 63.00 257.00 63.00 263.00 63.00 269.00
C 55.69 270.19 44.25 271.08 37.33 268.67 C 30.40 266.26 24.13 263.26 20.70 256.30 C 17.26 249.34 17.91 239.31 22.75 232.75 C 27.60 226.20 29.43 222.03 31.00 213.00 C 32.57 203.96 15.85 206.23 14.08 200.92 C 12.32 195.60 31.19 196.67 30.97 188.97 C 30.76 181.28 26.68 175.86 22.23 169.77 C 17.78 163.68 17.48 152.63 20.92 145.92 C 24.37 139.22 29.91 135.39 37.02 133.02 C 44.14 130.66 55.28 130.04 63.00 132.00
C 64.54 142.30 63.86 151.93 53.00 149.00 C 42.14 146.08 39.07 158.07 43.77 164.23 C 48.48 170.39 51.62 174.98 54.32 182.68 C 57.02 190.37 51.91 199.32 43.00 200.00
C 47.32 203.05 57.09 207.30 55.00 215.00 C 52.91 222.70 51.69 227.89 46.08 233.08 C 40.48 238.28 38.84 247.21 47.00 250.00
M 352.00 264.00 
C 351.73 261.33 352.67 258.93 353.00 257.00
C 353.33 255.06 352.75 252.96 353.00 251.00
C 354.00 251.00 355.00 251.00 356.00 251.00
C 358.98 250.03 362.90 251.55 366.00 251.00
C 380.02 246.57 371.41 234.21 364.25 226.75 C 357.08 219.30 359.24 200.76 373.00 202.00
C 365.46 198.32 357.51 192.16 360.98 181.98 C 364.44 171.79 369.84 170.38 373.32 160.32 C 376.81 150.26 360.59 146.34 353.00 150.00
C 353.00 148.00 353.00 146.00 353.00 144.00
C 352.67 142.04 351.73 139.64 352.00 137.00
C 352.04 135.33 351.97 133.67 352.00 132.00
C 359.88 130.62 370.78 130.40 378.07 132.93 C 385.37 135.46 390.23 139.17 394.30 145.70 C 398.38 152.22 398.06 162.11 393.69 168.69 C 389.33 175.28 385.42 179.55 384.02 188.02 C 382.63 196.50 401.11 194.70 400.97 200.03 C 400.84 205.36 383.59 203.81 384.08 212.08 C 384.57 220.34 388.25 225.71 392.75 232.25 C 397.26 238.78 398.45 247.79 395.07 255.07 C 391.70 262.36 386.69 265.50 378.98 267.98 C 371.26 270.45 360.32 270.34 352.00 269.00
C 352.00 267.33 352.00 265.67 352.00 264.00
M 136.00 227.00 
C 132.54 227.42 128.12 228.00 124.00 228.00
C 124.42 232.60 124.48 239.56 124.00 244.00 C 123.52 248.44 125.99 257.01 123.00 260.00
C 120.04 262.96 107.88 261.58 103.00 261.00 C 98.12 260.42 100.23 248.37 100.00 243.00 C 99.77 237.63 100.06 228.35 100.00 222.00 C 99.94 215.65 99.94 206.69 100.00 200.00 C 100.06 193.31 99.75 185.72 100.00 179.00 C 100.25 172.28 99.40 164.57 100.00 158.00 C 100.60 151.43 97.01 141.95 104.00 140.00
C 129.80 132.80 165.35 141.09 173.93 168.07 C 182.50 195.06 165.65 226.41 136.00 227.00
M 332.00 259.00 
C 331.76 261.81 325.31 261.57 321.00 261.00 C 316.69 260.43 309.14 262.79 306.00 260.00
C 300.50 255.11 303.57 239.86 298.00 235.00
C 284.33 235.00 270.67 235.00 257.00 235.00
C 254.25 237.44 254.90 244.61 253.02 248.02 C 251.15 251.44 250.62 257.29 249.00 261.00
C 246.33 261.00 243.67 261.00 241.00 261.00
C 237.79 261.00 225.62 262.65 224.00 260.00
C 222.55 257.63 228.53 248.69 228.98 244.98 C 229.42 241.26 233.29 234.73 234.32 230.32 C 235.36 225.91 238.31 220.45 239.78 215.78 C 241.24 211.10 243.27 205.71 244.93 200.93 C 246.58 196.14 248.69 191.21 250.31 186.31 C 251.92 181.40 253.93 176.66 255.77 171.77 C 257.61 166.88 258.80 161.78 260.92 156.92 C 263.05 152.07 264.65 146.41 265.00 141.00
C 273.33 141.00 281.67 141.00 290.00 141.00
C 303.08 180.65 318.94 219.38 332.00 259.00
M 214.00 182.00 
C 214.00 190.00 214.00 198.00 214.00 206.00
C 205.67 206.00 197.33 206.00 189.00 206.00
C 189.00 198.00 189.00 190.00 189.00 182.00
C 197.33 182.00 205.67 182.00 214.00 182.00
M 214.00 258.00 
C 213.99 258.11 215.91 260.18 215.00 261.00
C 206.50 260.34 196.67 262.33 189.00 260.00
C 185.40 254.85 191.70 242.78 189.00 237.00
C 197.33 237.00 205.67 237.00 214.00 237.00
C 214.00 244.00 214.00 251.00 214.00 258.00 Z"/>
</g>
<g fill="#FFFFFF" fill-opacity="0.62" stroke="None">
<path d="
M 340.00 0.00 
L 331.00 0.00
C 332.89 1.72 338.04 1.52 340.00 0.00 Z"/>
</g>
<g fill="#000000" fill-opacity="0.00" stroke="None">
<path d="
M 411.00 70.00 
C 411.00 69.98 412.00 70.00 412.00 70.00
L 412.00 0.00
L 341.00 0.00
C 373.88 4.42 409.64 34.29 411.00 70.00 Z"/>
</g>
<g fill="#FFFFFF" fill-opacity="0.51" stroke="None">
<path d="
M 0.00 79.00 
C 1.87 76.96 0.89 72.86 1.00 70.00
C 1.00 70.00 0.50 70.00 0.00 70.00
L 0.00 79.00 Z"/>
</g>
<g fill="#FFFFFF" fill-opacity="0.54" stroke="None">
<path d="
M 412.00 80.00 
L 412.00 70.00
C 412.00 70.00 411.00 69.98 411.00 70.00
C 411.12 73.20 410.17 77.56 412.00 80.00 Z"/>
</g>
<g fill="#000000" fill-opacity="1.00" stroke="None">
<path d="
M 57.00 251.00 
C 52.93 251.15 51.02 252.10 47.00 250.00
C 38.84 247.21 40.48 238.28 46.08 233.08 C 51.69 227.89 52.91 222.70 55.00 215.00 C 57.09 207.30 47.32 203.05 43.00 200.00
C 51.91 199.32 57.02 190.37 54.32 182.68 C 51.62 174.98 48.48 170.39 43.77 164.23 C 39.07 158.07 42.14 146.08 53.00 149.00 C 63.86 151.93 64.54 142.30 63.00 132.00
C 55.28 130.04 44.14 130.66 37.02 133.02 C 29.91 135.39 24.37 139.22 20.92 145.92 C 17.48 152.63 17.78 163.68 22.23 169.77 C 26.68 175.86 30.76 181.28 30.97 188.97 C 31.19 196.67 12.32 195.60 14.08 200.92 C 15.85 206.23 32.57 203.96 31.00 213.00 C 29.43 222.03 27.60 226.20 22.75 232.75 C 17.91 239.31 17.26 249.34 20.70 256.30 C 24.13 263.26 30.40 266.26 37.33 268.67 C 44.25 271.08 55.69 270.19 63.00 269.00
C 63.00 263.00 63.00 257.00 63.00 251.00
C 61.01 250.91 58.99 251.12 57.00 251.00 Z"/>
</g>
<g fill="#000000" fill-opacity="1.00" stroke="None">
<path d="
M 352.00 137.00 
C 351.97 138.19 352.84 142.10 353.00 144.00
C 353.00 146.00 353.00 148.00 353.00 150.00
C 360.59 146.34 376.81 150.26 373.32 160.32 C 369.84 170.38 364.44 171.79 360.98 181.98 C 357.51 192.16 365.46 198.32 373.00 202.00
C 359.24 200.76 357.08 219.30 364.25 226.75 C 371.41 234.21 380.02 246.57 366.00 251.00
C 363.16 251.90 358.00 250.53 356.00 251.00
C 355.00 251.00 354.00 251.00 353.00 251.00
C 352.75 252.96 353.33 255.06 353.00 257.00
C 352.84 258.89 351.97 262.89 352.00 264.00
C 352.00 265.67 352.00 267.33 352.00 269.00
C 360.32 270.34 371.26 270.45 378.98 267.98 C 386.69 265.50 391.70 262.36 395.07 255.07 C 398.45 247.79 397.26 238.78 392.75 232.25 C 388.25 225.71 384.57 220.34 384.08 212.08 C 383.59 203.81 400.84 205.36 400.97 200.03 C 401.11 194.70 382.63 196.50 384.02 188.02 C 385.42 179.55 389.33 175.28 393.69 168.69 C 398.06 162.11 398.38 152.22 394.30 145.70 C 390.23 139.17 385.37 135.46 378.07 132.93 C 370.78 130.40 359.88 130.62 352.00 132.00
C 351.97 133.67 352.04 135.33 352.00 137.00 Z"/>
</g>
<g fill="#757575" fill-opacity="1.00" stroke="None">
<path d="
M 353.00 144.00 
C 352.84 142.10 351.97 138.19 352.00 137.00
C 351.73 139.64 352.67 142.04 353.00 144.00 Z"/>
</g>
<g fill="#000000" fill-opacity="1.00" stroke="None">
<path d="
M 104.00 140.00 
C 103.28 140.30 102.32 141.66 101.00 141.00
C 101.00 180.67 101.00 220.33 101.00 260.00
C 108.33 260.00 115.67 260.00 123.00 260.00
C 123.72 249.40 122.04 238.58 123.00 228.00
C 125.25 225.66 132.70 227.07 136.00 227.00
C 165.65 226.41 182.50 195.06 173.93 168.07 C 165.35 141.09 129.80 132.80 104.00 140.00
M 134.00 161.00 
C 147.09 161.89 153.20 172.39 153.00 185.00 C 152.80 197.61 144.95 205.53 133.00 208.00
C 130.38 208.54 127.67 209.89 125.00 208.00
C 121.19 205.30 122.49 190.51 123.00 185.00 C 123.51 179.49 120.26 164.74 124.00 161.00
C 126.47 158.53 131.54 160.56 134.00 161.00 Z"/>
</g>
<g fill="#6E6E6E" fill-opacity="1.00" stroke="None">
<path d="
M 123.00 260.00 
C 115.67 260.00 108.33 260.00 101.00 260.00
C 101.00 220.33 101.00 180.67 101.00 141.00
C 102.32 141.66 103.28 140.30 104.00 140.00
C 97.01 141.95 100.60 151.43 100.00 158.00 C 99.40 164.57 100.25 172.28 100.00 179.00 C 99.75 185.72 100.06 193.31 100.00 200.00 C 99.94 206.69 99.94 215.65 100.00 222.00 C 100.06 228.35 99.77 237.63 100.00 243.00 C 100.23 248.37 98.12 260.42 103.00 261.00 C 107.88 261.58 120.04 262.96 123.00 260.00 Z"/>
</g>
<g fill="#000000" fill-opacity="1.00" stroke="None">
<path d="
M 224.00 260.00 
C 229.63 259.27 236.15 260.53 241.00 261.00
C 243.67 261.00 246.33 261.00 249.00 261.00
C 250.62 257.29 251.15 251.44 253.02 248.02 C 254.90 244.61 254.25 237.44 257.00 235.00
C 260.39 231.99 272.14 233.90 277.00 234.00 C 281.86 234.10 294.48 231.93 298.00 235.00
C 303.57 239.86 300.50 255.11 306.00 260.00
C 309.65 259.35 315.58 260.87 319.00 260.00 C 322.42 259.13 330.09 262.02 332.00 259.00
C 318.94 219.38 303.08 180.65 290.00 141.00
C 281.67 141.00 273.33 141.00 265.00 141.00
C 264.65 146.41 263.05 152.07 260.92 156.92 C 258.80 161.78 257.61 166.88 255.77 171.77 C 253.93 176.66 251.92 181.40 250.31 186.31 C 248.69 191.21 246.58 196.14 244.93 200.93 C 243.27 205.71 241.24 211.10 239.78 215.78 C 238.31 220.45 235.36 225.91 234.32 230.32 C 233.29 234.73 229.42 241.26 228.98 244.98 C 228.53 248.69 222.55 257.63 224.00 260.00
M 290.00 213.00 
C 281.33 213.00 272.67 213.00 264.00 213.00
C 268.30 199.34 272.85 185.74 277.00 172.00
C 282.20 185.01 286.93 199.04 290.00 213.00 Z"/>
</g>
<g fill="#6B6B6B" fill-opacity="1.00" stroke="None">
<path d="
M 124.00 161.00 
C 125.45 159.98 132.14 160.87 134.00 161.00
C 131.54 160.56 126.47 158.53 124.00 161.00 Z"/>
</g>
<g fill="#F6F6F6" fill-opacity="1.00" stroke="None">
<path d="
M 125.00 208.00 
C 126.57 208.76 131.22 208.16 133.00 208.00
C 144.95 205.53 152.80 197.61 153.00 185.00 C 153.20 172.39 147.09 161.89 134.00 161.00
C 132.14 160.87 125.45 159.98 124.00 161.00
C 120.26 164.74 123.51 179.49 123.00 185.00 C 122.49 190.51 121.19 205.30 125.00 208.00 Z"/>
</g>
<g fill="#F4F4F4" fill-opacity="1.00" stroke="None">
<path d="
M 290.00 213.00 
C 286.93 199.04 282.20 185.01 277.00 172.00
C 272.85 185.74 268.30 199.34 264.00 213.00
C 272.67 213.00 281.33 213.00 290.00 213.00 Z"/>
</g>
<g fill="#000000" fill-opacity="1.00" stroke="None">
<path d="
M 214.00 182.00 
C 205.67 182.00 197.33 182.00 189.00 182.00
C 189.00 190.00 189.00 198.00 189.00 206.00
C 197.33 206.00 205.67 206.00 214.00 206.00
C 214.00 198.00 214.00 190.00 214.00 182.00 Z"/>
</g>
<g fill="#5F5F5F" fill-opacity="1.00" stroke="None">
<path d="
M 133.00 208.00 
C 131.22 208.16 126.57 208.76 125.00 208.00
C 127.67 209.89 130.38 208.54 133.00 208.00 Z"/>
</g>
<g fill="#525252" fill-opacity="1.00" stroke="None">
<path d="
M 123.00 228.00 
C 123.00 227.96 124.00 228.00 124.00 228.00
C 128.12 228.00 132.54 227.42 136.00 227.00
C 132.70 227.07 125.25 225.66 123.00 228.00 Z"/>
</g>
<g fill="#A9A9A9" fill-opacity="1.00" stroke="None">
<path d="
M 123.00 260.00 
C 125.99 257.01 123.52 248.44 124.00 244.00 C 124.48 239.56 124.42 232.60 124.00 228.00
C 124.00 228.00 123.00 227.96 123.00 228.00
C 122.04 238.58 123.72 249.40 123.00 260.00 Z"/>
</g>
<g fill="#616161" fill-opacity="1.00" stroke="None">
<path d="
M 257.00 235.00 
C 270.67 235.00 284.33 235.00 298.00 235.00
C 294.48 231.93 281.86 234.10 277.00 234.00 C 272.14 233.90 260.39 231.99 257.00 235.00 Z"/>
</g>
<g fill="#000000" fill-opacity="1.00" stroke="None">
<path d="
M 189.00 260.00 
C 194.90 257.78 211.17 263.85 214.00 258.00
C 214.00 251.00 214.00 244.00 214.00 237.00
C 205.67 237.00 197.33 237.00 189.00 237.00
C 191.70 242.78 185.40 254.85 189.00 260.00 Z"/>
</g>
<g fill="#8E8E8E" fill-opacity="1.00" stroke="None">
<path d="
M 57.00 251.00 
C 53.48 250.79 50.24 251.15 47.00 250.00
C 51.02 252.10 52.93 251.15 57.00 251.00 Z"/>
</g>
<g fill="#818181" fill-opacity="1.00" stroke="None">
<path d="
M 366.00 251.00 
C 362.90 251.55 358.98 250.03 356.00 251.00
C 358.00 250.53 363.16 251.90 366.00 251.00 Z"/>
</g>
<g fill="#737373" fill-opacity="1.00" stroke="None">
<path d="
M 352.00 264.00 
C 351.97 262.89 352.84 258.89 353.00 257.00
C 352.67 258.93 351.73 261.33 352.00 264.00 Z"/>
</g>
<g fill="#747474" fill-opacity="1.00" stroke="None">
<path d="
M 189.00 260.00 
C 196.67 262.33 206.50 260.34 215.00 261.00
C 215.91 260.18 213.99 258.11 214.00 258.00
C 211.17 263.85 194.90 257.78 189.00 260.00 Z"/>
</g>
<g fill="#6E6E6E" fill-opacity="1.00" stroke="None">
<path d="
M 306.00 260.00 
C 309.14 262.79 316.69 260.43 321.00 261.00 C 325.31 261.57 331.76 261.81 332.00 259.00
C 330.09 262.02 322.42 259.13 319.00 260.00 C 315.58 260.87 309.65 259.35 306.00 260.00 Z"/>
</g>
<g fill="#6C6C6C" fill-opacity="1.00" stroke="None">
<path d="
M 241.00 261.00 
C 236.15 260.53 229.63 259.27 224.00 260.00
C 225.62 262.65 237.79 261.00 241.00 261.00 Z"/>
</g>
<g fill="#FFFFFF" fill-opacity="0.57" stroke="None">
<path d="
M 412.00 329.00 
L 412.00 321.00
C 410.28 322.57 410.50 327.36 412.00 329.00 Z"/>
</g>
<g fill="#000000" fill-opacity="0.00" stroke="None">
<path d="
M 0.00 400.00 
L 70.00 400.00
C 70.00 399.50 70.00 399.00 70.00 399.00
C 34.59 396.89 5.24 363.11 0.00 330.00
L 0.00 400.00 Z"/>
</g>
<g fill="#000000" fill-opacity="0.00" stroke="None">
<path d="
M 342.00 400.00 
L 412.00 400.00
L 412.00 330.00
C 407.11 364.59 376.52 394.91 342.00 400.00 Z"/>
</g>
<g fill="#FFFFFF" fill-opacity="0.56" stroke="None">
<path d="
M 70.00 400.00 
L 77.00 400.00
C 75.60 398.15 72.22 399.13 70.00 399.00
C 70.00 399.00 70.00 399.50 70.00 400.00 Z"/>
</g>
</svg>